<?xml version="1.0" encoding="UTF-8" standalone="no"?>
<!-- Created with Inkscape (http://www.inkscape.org/) -->

<svg
   xmlns:dc="http://purl.org/dc/elements/1.1/"
   xmlns:cc="http://creativecommons.org/ns#"
   xmlns:rdf="http://www.w3.org/1999/02/22-rdf-syntax-ns#"
   xmlns:svg="http://www.w3.org/2000/svg"
   xmlns="http://www.w3.org/2000/svg"
   xmlns:sodipodi="http://sodipodi.sourceforge.net/DTD/sodipodi-0.dtd"
   xmlns:inkscape="http://www.inkscape.org/namespaces/inkscape"
   width="210mm"
   height="210mm"
   viewBox="0 0 210 210"
   version="1.1"
   id="svg8"
   inkscape:export-filename="C:\Users\lkh\Desktop\you\icon-310x150.png"
   inkscape:export-xdpi="18.747618"
   inkscape:export-ydpi="18.747618"
   inkscape:version="0.92.3 (2405546, 2018-03-11)"
   sodipodi:docname="ico.svg">
  <defs
     id="defs2" />
  <sodipodi:namedview
     id="base"
     pagecolor="#ffffff"
     bordercolor="#666666"
     borderopacity="1.0"
     inkscape:pageopacity="0.0"
     inkscape:pageshadow="2"
     inkscape:zoom="0.49497475"
     inkscape:cx="273.19312"
     inkscape:cy="538.79018"
     inkscape:document-units="mm"
     inkscape:current-layer="layer1"
     showgrid="false"
     inkscape:window-width="1920"
     inkscape:window-height="1005"
     inkscape:window-x="-9"
     inkscape:window-y="-9"
     inkscape:window-maximized="1" />
  <metadata
     id="metadata5">
    <rdf:RDF>
      <cc:Work
         rdf:about="">
        <dc:format>image/svg+xml</dc:format>
        <dc:type
           rdf:resource="http://purl.org/dc/dcmitype/StillImage" />
        <dc:title></dc:title>
      </cc:Work>
    </rdf:RDF>
  </metadata>
  <g
     inkscape:label="Layer 1"
     inkscape:groupmode="layer"
     id="layer1"
     transform="translate(0,-87)">
    <path
       style="fill:#000000;stroke-width:1.85063052"
       d="m 133.27079,283.77348 c -5.7189,-4.33244 -14.17214,-11.40906 -18.78497,-15.72584 -9.33109,-8.73221 -12.14242,-9.67241 -12.14242,-4.0608 0,5.24805 -4.641013,6.54254 -10.199593,2.8449 -7.35624,-4.89347 -8.94214,-10.32293 -5.80336,-19.86831 3.08467,-9.38082 3.24375,-47.08111 0.21165,-50.15943 -1.22989,-1.24864 -7.43717,3.70044 -18.70463,14.91326 -9.27513,9.23015 -18.35692,16.78209 -20.18176,16.78209 -5.28848,0 -19.70804,-8.1248 -19.70804,-11.10463 0,-1.64762 2.78264,-3.30051 7.08378,-4.20778 11.90782,-2.5118 17.94841,-7.81069 41.33802,-36.2623 9.41779,-11.456 24.704973,-45.42382 21.77957,-48.39381 -0.60774,-0.617 -7.14683,1.77451 -14.5313,5.31446 -7.38448,3.53995 -21.01537,9.08991 -30.29088,12.33326 l -16.86456,5.89699 -8.69622,-3.27806 c -13.15522,-4.95889 -12.5302,-7.87117 1.588,-7.39921 6.47155,0.21634 13.76161,-0.59879 16.20013,-1.8114 8.95442,-4.45278 17.4816,-8.10244 22.8279,-9.77041 3.01547,-0.94078 13.3345,-5.01194 22.93118,-9.04701 16.224623,-6.82188 17.641753,-7.84612 20.203543,-14.60208 3.81177,-10.052489 5.22712,-11.925162 9.01287,-11.925162 2.02901,0 4.49152,2.714066 6.43737,7.094972 l 3.15135,7.09497 16.38332,-0.79524 c 12.65591,-0.61431 17.83482,-0.096 22.76317,2.27834 7.45839,3.5932 8.78879,5.2969 7.27132,9.31166 -2.19206,5.79949 -23.86418,8.1856 -41.88504,4.61155 -2.54478,-0.50471 -3.88388,0.72771 -4.91571,4.52407 -0.77998,2.86975 -3.51441,6.89178 -6.07651,8.93785 -6.92151,5.52745 -12.63662,14.47853 -11.37517,17.81593 0.94229,2.493 2.05942,2.20134 7.39568,-1.93086 8.73558,-6.76453 12.58762,-6.17452 19.96152,3.05745 14.33096,17.94209 15.50481,24.24071 17.22572,92.42935 0.81941,32.46798 0.59229,36.37813 -2.30152,39.6245 -4.73914,5.31653 -9.70834,4.26147 -21.30441,-4.52327 z m 2.13293,-31.03326 c 0,-6.15345 -0.61988,-11.22697 -1.37751,-11.27448 -0.75763,-0.0475 -7.16196,-0.20345 -14.23185,-0.34652 -10.99648,-0.22254 -12.94557,0.22085 -13.4856,3.06777 -1.28203,6.75851 14.87664,19.49021 24.96242,19.66834 3.83441,0.0677 4.13254,-0.73414 4.13254,-11.11511 z m -11.0201,-27.73536 c 8.91432,-2.99106 10.158,-4.02603 10.58025,-8.80474 0.79114,-8.95361 -1.69185,-10.98211 -8.84552,-7.22641 -4.72484,2.48055 -6.84381,2.7303 -9.40223,1.10818 -1.81652,-1.15173 -5.07934,-2.09405 -7.25071,-2.09405 -3.63299,0 -3.8559,0.68173 -2.79421,8.54571 1.84729,13.68289 1.98455,13.74853 17.71242,8.47131 z m 8.76467,-35.66384 c 1.04791,-17.60041 -11.36362,-26.17573 -17.23545,-11.90824 -3.54011,8.60182 -3.31952,9.68155 3.25099,15.91289 8.51432,8.0748 13.34767,6.69071 13.98446,-4.00465 z"
       id="path3724"
       inkscape:connector-curvature="0" />
  </g>
</svg>
